<svg width="24" height="24" viewBox="0 0 24 24" fill="none" xmlns="http://www.w3.org/2000/svg">
<circle cx="12" cy="12" r="12" fill="#0E8BFF"/>
<path d="M12.9196 5.05293C13.8718 3.80588 15.1957 3.7998 15.1957 3.7998C15.1957 3.7998 15.3926 4.97224 14.4466 6.10166C13.4365 7.30764 12.2883 7.1103 12.2883 7.1103C12.2883 7.1103 12.0727 6.16184 12.9196 5.05293ZM12.4095 7.93159C12.8993 7.93159 13.8086 7.26251 14.992 7.26251C17.0292 7.26251 17.8306 8.70275 17.8306 8.70275C17.8306 8.70275 16.2632 9.49898 16.2632 11.431C16.2632 13.6105 18.2158 14.3616 18.2158 14.3616C18.2158 14.3616 16.8508 18.1787 15.0072 18.1787C14.1604 18.1787 13.5021 17.6117 12.6099 17.6117C11.7007 17.6117 10.7984 18.1998 10.2108 18.1998C8.52726 18.1999 6.40039 14.579 6.40039 11.6684C6.40039 8.80482 8.20064 7.30263 9.88921 7.30263C10.9869 7.30263 11.8388 7.93159 12.4095 7.93159Z" fill="white"/>
</svg>
