<svg width="129" height="128" viewBox="0 0 129 128" fill="none" xmlns="http://www.w3.org/2000/svg">
<g clip-path="url(#clip0_1_14367)">
<rect x="0.42627" width="128" height="128" rx="16" fill="#0E8BFF" fill-opacity="0.04"/>
<g clip-path="url(#clip1_1_14367)" filter="url(#filter0_d_1_14367)">
<path d="M94.8996 91.1848C92.3647 91.1793 89.8648 90.6084 87.582 89.5136C85.2992 88.4188 83.291 86.8278 81.7038 84.8564C80.1165 82.8851 78.9902 80.5831 78.4068 78.1181C77.8235 75.6531 77.7978 73.0873 78.3316 70.6075C79.1991 66.7157 81.3815 63.2379 84.5106 60.7608C87.6397 58.2838 91.5239 56.959 95.5081 57.0101H106.341C106.942 57.0101 107.519 56.7714 107.945 56.3464C108.372 55.9214 108.612 55.345 108.614 54.7439C108.626 51.1633 108.647 44.5459 108.647 44.5459C108.645 41.5444 107.456 38.6692 105.341 36.5467C103.225 34.4243 100.354 33.2267 97.3523 33.2147C77.0468 33.2147 137.51 33.2147 33.8976 33.2147C32.996 33.2147 32.1325 32.8566 31.4971 32.2191C30.8616 31.5816 30.5062 30.717 30.5091 29.8154C30.512 28.9138 30.873 28.0492 31.5125 27.4117C32.1521 26.7742 33.0179 26.4161 33.9194 26.4161L93.9748 26.4161C94.2753 26.4161 94.5639 26.2967 94.7771 26.0842C94.9902 25.8717 95.1106 25.5835 95.1115 25.283L95.1146 24.3311C95.1347 18.0763 88.035 13 79.2874 13L29.4301 13C25.2228 13 21.1824 14.6713 18.1978 17.6463C15.2132 20.6213 13.5289 24.6563 13.5154 28.8636L13.2895 99.1166C13.276 103.324 14.9344 107.359 17.8998 110.334C20.8653 113.309 24.8949 114.98 29.1022 114.98H97.0894C100.095 114.98 102.981 113.786 105.112 111.661C107.244 109.536 108.447 106.654 108.457 103.649L108.493 92.318C108.494 92.0174 108.376 91.7292 108.164 91.5167C107.952 91.3042 107.664 91.1848 107.364 91.1848H94.8996Z" fill="#0E8BFF"/>
<path d="M108.585 63.9902H94.9871C92.2824 63.9902 89.6851 65.0647 87.7664 66.9772C85.8477 68.8897 84.765 71.4836 84.7563 74.1883C84.7476 76.8929 85.8137 79.4868 87.72 81.3993C89.6264 83.3118 92.2169 84.3863 94.9216 84.3863H108.519C110.12 84.1159 111.574 83.2819 112.617 82.035C113.66 80.7881 114.224 79.2106 114.206 77.5876L114.228 70.7889C114.256 69.166 113.703 67.5884 112.667 66.3415C111.632 65.0946 110.184 64.2606 108.585 63.9902V63.9902Z" fill="#0E8BFF"/>
</g>
</g>
<defs>
<filter id="filter0_d_1_14367" x="-27.8152" y="-11.2926" width="183.284" height="182.956" filterUnits="userSpaceOnUse" color-interpolation-filters="sRGB">
<feFlood flood-opacity="0" result="BackgroundImageFix"/>
<feColorMatrix in="SourceAlpha" type="matrix" values="0 0 0 0 0 0 0 0 0 0 0 0 0 0 0 0 0 0 127 0" result="hardAlpha"/>
<feOffset dy="16.195"/>
<feGaussianBlur stdDeviation="20.2438"/>
<feColorMatrix type="matrix" values="0 0 0 0 0.149531 0 0 0 0 0.183606 0 0 0 0 0.3625 0 0 0 0.04 0"/>
<feBlend mode="normal" in2="BackgroundImageFix" result="effect1_dropShadow_1_14367"/>
<feBlend mode="normal" in="SourceGraphic" in2="effect1_dropShadow_1_14367" result="shape"/>
</filter>
<clipPath id="clip0_1_14367">
<rect x="0.42627" width="128" height="128" rx="16" fill="white"/>
</clipPath>
<clipPath id="clip1_1_14367">
<rect width="101.981" height="101.981" fill="white" transform="matrix(1 0 -0.00321539 0.999995 13.0005 13)"/>
</clipPath>
</defs>
</svg>
