<svg width="129" height="128" viewBox="0 0 129 128" fill="none" xmlns="http://www.w3.org/2000/svg">
<g clip-path="url(#clip0_1_14374)">
<rect x="0.342773" width="128" height="128" rx="16" fill="#0E8BFF" fill-opacity="0.04"/>
<g clip-path="url(#clip1_1_14374)" filter="url(#filter0_d_1_14374)">
<path d="M90.4726 52.8296L14.6748 52.8296C13.7176 52.8296 12.8012 53.2116 12.1273 53.8917C11.4535 54.5717 11.0773 55.494 11.0816 56.4557L11.2919 103.596C11.2962 104.557 11.6806 105.48 12.3605 106.16C13.0404 106.84 13.9602 107.222 14.9175 107.222H90.7152C91.6725 107.222 92.5888 106.84 93.2627 106.16C93.9366 105.48 94.3127 104.557 94.3084 103.596L94.0981 56.4557C94.0939 55.494 93.7095 54.5717 93.0295 53.8917C92.3496 53.2116 91.4298 52.8296 90.4726 52.8296ZM21.9584 67.3341C21.2445 67.3341 20.5457 67.1215 19.9504 66.723C19.355 66.3246 18.8899 65.7583 18.6137 65.0957C18.3376 64.4331 18.2629 63.704 18.399 63.0006C18.5351 62.2972 18.876 61.6511 19.3785 61.1439C19.881 60.6368 20.5226 60.2915 21.2222 60.1515C21.9217 60.0116 22.6478 60.0834 23.3085 60.3579C23.9693 60.6323 24.5351 61.0971 24.9343 61.6934C25.3336 62.2897 25.5484 62.9908 25.5516 63.708C25.5559 64.6697 25.1797 65.592 24.5059 66.2721C23.832 66.9521 22.9157 67.3341 21.9584 67.3341ZM52.7435 90.904C50.6019 90.904 48.5055 90.266 46.7195 89.0707C44.9335 87.8753 43.538 86.1764 42.7096 84.1886C41.8812 82.2008 41.657 80.0135 42.0654 77.9033C42.4738 75.7931 43.4964 73.8548 45.004 72.3334C46.5115 70.812 48.4363 69.776 50.5349 69.3562C52.6335 68.9365 54.8117 69.1519 56.794 69.9753C58.7762 70.7986 60.4736 72.1929 61.6714 73.9819C62.8692 75.7708 63.5137 77.8741 63.5233 80.0256C63.5361 82.9107 62.4076 85.6777 60.3861 87.7178C58.3645 89.7579 55.6154 90.904 52.7435 90.904ZM83.464 99.9694C82.7501 99.9694 82.0513 99.7567 81.456 99.3583C80.8607 98.9598 80.3955 98.3935 80.1194 97.7309C79.8432 97.0683 79.7685 96.3392 79.9046 95.6358C80.0407 94.9324 80.3816 94.2863 80.8841 93.7792C81.3867 93.272 82.0283 92.9267 82.7278 92.7868C83.4273 92.6469 84.1534 92.7187 84.8141 92.9931C85.4749 93.2676 86.0407 93.7323 86.44 94.3287C86.8392 94.925 87.054 95.626 87.0572 96.3432C87.0615 97.3049 86.6854 98.2273 86.0115 98.9073C85.3377 99.5873 84.4213 99.9694 83.464 99.9694Z" fill="#0E8BFF"/>
</g>
<g clip-path="url(#clip2_1_14374)" filter="url(#filter1_d_1_14374)">
<path d="M114.804 19.6948L48.5281 19.6948C47.691 19.6948 46.8872 20.0292 46.2935 20.6244C45.6997 21.2195 45.3646 22.0267 45.3619 22.8684L45.2292 64.1253C45.2265 64.967 45.5564 65.7742 46.1464 66.3693C46.7363 66.9645 47.538 67.2989 48.375 67.2989H114.651C115.488 67.2989 116.292 66.9645 116.885 66.3693C117.479 65.7742 117.814 64.967 117.817 64.1253L117.95 22.8684C117.952 22.0267 117.622 21.2195 117.033 20.6244C116.443 20.0292 115.641 19.6948 114.804 19.6948ZM54.7992 32.3892C54.175 32.3892 53.5655 32.2031 53.0476 31.8544C52.5297 31.5057 52.1268 31.01 51.8898 30.4301C51.6528 29.8502 51.5923 29.2121 51.7161 28.5965C51.8398 27.9809 52.1422 27.4154 52.585 26.9716C53.0278 26.5277 53.5911 26.2255 54.2037 26.103C54.8163 25.9806 55.4507 26.0434 56.0266 26.2836C56.6025 26.5238 57.0941 26.9306 57.4392 27.4525C57.7843 27.9744 57.9674 28.588 57.9654 29.2156C57.9627 30.0573 57.6276 30.8645 57.0338 31.4597C56.4401 32.0549 55.6363 32.3892 54.7992 32.3892ZM81.5588 53.0176C79.6863 53.0176 77.8575 52.4593 76.3039 51.4131C74.7502 50.3669 73.5415 48.88 72.8305 47.1403C72.1195 45.4006 71.9381 43.4863 72.3094 41.6394C72.6806 39.7926 73.5878 38.0961 74.9162 36.7646C76.2446 35.4331 77.9346 34.5263 79.7724 34.159C81.6102 33.7916 83.5132 33.9802 85.241 34.7008C86.9687 35.4214 88.4435 36.6417 89.4788 38.2074C90.5141 39.7731 91.0635 41.6138 91.0574 43.4968C91.0493 46.0219 90.044 48.4436 88.2627 50.2291C86.4813 52.0146 84.0699 53.0176 81.5588 53.0176ZM108.359 60.9517C107.735 60.9517 107.125 60.7655 106.608 60.4168C106.09 60.0681 105.687 59.5724 105.45 58.9925C105.213 58.4126 105.152 57.7745 105.276 57.1589C105.4 56.5433 105.702 55.9778 106.145 55.534C106.588 55.0901 107.151 54.7879 107.764 54.6654C108.376 54.543 109.011 54.6058 109.587 54.846C110.163 55.0862 110.654 55.493 110.999 56.0149C111.344 56.5368 111.527 57.1504 111.525 57.7781C111.523 58.6197 111.188 59.427 110.594 60.0221C110 60.6173 109.196 60.9517 108.359 60.9517Z" fill="#0E8BFF"/>
</g>
</g>
<defs>
<filter id="filter0_d_1_14374" x="-17.4579" y="21.2499" width="140.305" height="140.317" filterUnits="userSpaceOnUse" color-interpolation-filters="sRGB">
<feFlood flood-opacity="0" result="BackgroundImageFix"/>
<feColorMatrix in="SourceAlpha" type="matrix" values="0 0 0 0 0 0 0 0 0 0 0 0 0 0 0 0 0 0 127 0" result="hardAlpha"/>
<feOffset dy="11.3832"/>
<feGaussianBlur stdDeviation="14.229"/>
<feColorMatrix type="matrix" values="0 0 0 0 0.149531 0 0 0 0 0.183606 0 0 0 0 0.3625 0 0 0 0.04 0"/>
<feBlend mode="normal" in2="BackgroundImageFix" result="effect1_dropShadow_1_14374"/>
<feBlend mode="normal" in="SourceGraphic" in2="effect1_dropShadow_1_14374" result="shape"/>
</filter>
<filter id="filter1_d_1_14374" x="15.1777" y="-11" width="132.822" height="132.993" filterUnits="userSpaceOnUse" color-interpolation-filters="sRGB">
<feFlood flood-opacity="0" result="BackgroundImageFix"/>
<feColorMatrix in="SourceAlpha" type="matrix" values="0 0 0 0 0 0 0 0 0 0 0 0 0 0 0 0 0 0 127 0" result="hardAlpha"/>
<feOffset dy="12"/>
<feGaussianBlur stdDeviation="15"/>
<feColorMatrix type="matrix" values="0 0 0 0 0.149531 0 0 0 0 0.183606 0 0 0 0 0.3625 0 0 0 0.04 0"/>
<feBlend mode="normal" in2="BackgroundImageFix" result="effect1_dropShadow_1_14374"/>
<feBlend mode="normal" in="SourceGraphic" in2="effect1_dropShadow_1_14374" result="shape"/>
</filter>
<clipPath id="clip0_1_14374">
<rect x="0.342773" width="128" height="128" rx="16" fill="white"/>
</clipPath>
<clipPath id="clip1_1_14374">
<rect width="83.0165" height="83.402" fill="white" transform="matrix(1 0 0.00446086 0.99999 11 38.3247)"/>
</clipPath>
<clipPath id="clip2_1_14374">
<rect width="72.5878" height="72.9932" fill="white" transform="matrix(1 0 -0.00321541 0.999995 45.4121 7)"/>
</clipPath>
</defs>
</svg>
