<svg width="129" height="128" viewBox="0 0 129 128" fill="none" xmlns="http://www.w3.org/2000/svg">
<g clip-path="url(#clip0_1_14348)">
<rect x="0.974609" width="128" height="128" rx="16" fill="#0E8BFF" fill-opacity="0.04"/>
<g filter="url(#filter0_d_1_14348)">
<path d="M37.7363 102.038H83.4488C85.0814 102.038 86.6614 101.456 87.9087 100.396C89.1561 99.3361 89.9903 97.8657 90.2635 96.2457L102.414 24.367C102.688 22.7478 103.523 21.2786 104.77 20.2193C106.017 19.1601 107.597 18.5792 109.229 18.5796H113.762" stroke="#0E8BFF" stroke-width="5.83177" stroke-linecap="round" stroke-linejoin="round"/>
<path d="M44.3817 49.5067C42.109 49.9233 39.9286 48.4192 39.5118 46.1462L35.3603 23.5131C34.9435 21.2404 36.4479 19.06 38.7206 18.6432L79.8717 11.095C82.1442 10.6781 84.3247 12.1826 84.7418 14.4553L88.8933 37.0885C89.3099 39.3612 87.8058 41.5415 85.5329 41.9584L44.3817 49.5067Z" fill="#0E8BFF"/>
<path d="M35.8457 43.9234C33.5426 43.7379 31.8259 41.7204 32.0115 39.4172L33.8593 16.4808C34.0449 14.1777 36.0624 12.461 38.3656 12.6465L80.0681 16.0063C82.3711 16.1918 84.0879 18.2094 83.9024 20.5125L82.0545 43.4489C81.869 45.7521 79.8513 47.4687 77.5483 47.2832L35.8457 43.9234Z" fill="#0E8BFF"/>
<path d="M38.0293 16.8168L63.0508 18.8326L62.7148 23.0029L37.6933 20.987L38.0293 16.8168ZM37.5253 23.0722L50.0361 24.0801L49.7001 28.2503L37.1893 27.2424L37.5253 23.0722ZM77.7727 18.4447L79.8578 18.6127L79.5218 22.7829L77.4367 22.615L77.7727 18.4447ZM77.1847 25.7427L79.2699 25.9106L78.9339 30.0809L76.8488 29.9129L77.1847 25.7427ZM76.5968 33.0406L78.6819 33.2086L78.3459 37.3788L76.2608 37.2109L76.5968 33.0406ZM76.0088 40.3385L78.0939 40.5065L77.758 44.6768L75.6728 44.5088L76.0088 40.3385Z" fill="white"/>
<path d="M46.3753 112.471C46.7171 112.471 47.0511 112.573 47.3353 112.764C47.6194 112.955 47.8409 113.227 47.9716 113.545C48.1024 113.862 48.1366 114.212 48.07 114.549C48.0033 114.887 47.8387 115.197 47.5971 115.44C47.3555 115.683 47.0476 115.849 46.7124 115.916C46.3772 115.983 46.0298 115.948 45.7141 115.817C45.3984 115.685 45.1285 115.462 44.9387 115.176C44.7488 114.89 44.6475 114.554 44.6475 114.21C44.6475 113.749 44.8295 113.307 45.1535 112.981C45.4776 112.654 45.9171 112.471 46.3753 112.471Z" fill="white" stroke="#0E8BFF" stroke-width="5.83177" stroke-linecap="round" stroke-linejoin="round"/>
<path d="M80.9329 112.471C81.2747 112.471 81.6087 112.573 81.8929 112.764C82.177 112.955 82.3985 113.227 82.5293 113.545C82.66 113.862 82.6943 114.212 82.6276 114.549C82.5609 114.887 82.3964 115.197 82.1547 115.44C81.9131 115.683 81.6052 115.849 81.27 115.916C80.9349 115.983 80.5874 115.948 80.2717 115.817C79.956 115.685 79.6861 115.462 79.4963 115.176C79.3064 114.89 79.2051 114.554 79.2051 114.21C79.2051 113.749 79.3871 113.307 79.7112 112.981C80.0352 112.654 80.4747 112.471 80.9329 112.471Z" fill="white"/>
<path d="M80.9329 112.471C81.2747 112.471 81.6087 112.573 81.8929 112.764C82.177 112.955 82.3985 113.227 82.5293 113.545C82.66 113.862 82.6943 114.212 82.6276 114.549C82.5609 114.887 82.3964 115.197 82.1547 115.44C81.9131 115.683 81.6052 115.849 81.27 115.916C80.9349 115.983 80.5874 115.948 80.2717 115.817C79.956 115.685 79.6861 115.462 79.4963 115.176C79.3064 114.89 79.2051 114.554 79.2051 114.21C79.2051 113.749 79.3871 113.307 79.7112 112.981C80.0352 112.654 80.4747 112.471 80.9329 112.471" stroke="#0E8BFF" stroke-width="5.83177" stroke-linecap="round" stroke-linejoin="round"/>
<path d="M92.811 81.1711H37.1925C34.1104 81.1708 31.1168 80.1337 28.6874 78.2247C26.258 76.3158 24.5323 73.6444 23.7843 70.6351L17.1033 43.7385C16.9758 43.2256 16.9662 42.6901 17.0752 42.1729C17.1842 41.6556 17.409 41.1702 17.7323 40.7535C18.0557 40.3368 18.4693 39.9998 18.9415 39.7682C19.4138 39.5365 19.9323 39.4162 20.4576 39.4165H99.8653" fill="#0E8BFF"/>
<path d="M92.811 81.1711H37.1925C34.1104 81.1708 31.1168 80.1337 28.6874 78.2247C26.258 76.3158 24.5323 73.6444 23.7843 70.6351L17.1033 43.7385C16.9758 43.2256 16.9662 42.6901 17.0752 42.1729C17.1842 41.6556 17.409 41.1702 17.7323 40.7535C18.0557 40.3368 18.4693 39.9998 18.9415 39.7682C19.4138 39.5365 19.9323 39.4162 20.4576 39.4165H99.8653" stroke="#0E8BFF" stroke-width="5.83177" stroke-linecap="round" stroke-linejoin="round"/>
</g>
</g>
<defs>
<filter id="filter0_d_1_14348" x="-10.9093" y="-20.996" width="152.581" height="174.852" filterUnits="userSpaceOnUse" color-interpolation-filters="sRGB">
<feFlood flood-opacity="0" result="BackgroundImageFix"/>
<feColorMatrix in="SourceAlpha" type="matrix" values="0 0 0 0 0 0 0 0 0 0 0 0 0 0 0 0 0 0 127 0" result="hardAlpha"/>
<feOffset dy="9.99732"/>
<feGaussianBlur stdDeviation="12.4966"/>
<feColorMatrix type="matrix" values="0 0 0 0 0.149531 0 0 0 0 0.183606 0 0 0 0 0.3625 0 0 0 0.04 0"/>
<feBlend mode="normal" in2="BackgroundImageFix" result="effect1_dropShadow_1_14348"/>
<feBlend mode="normal" in="SourceGraphic" in2="effect1_dropShadow_1_14348" result="shape"/>
</filter>
<clipPath id="clip0_1_14348">
<rect x="0.974609" width="128" height="128" rx="16" fill="white"/>
</clipPath>
</defs>
</svg>
