<svg width="24" height="24" viewBox="0 0 24 24" fill="none" xmlns="http://www.w3.org/2000/svg">
<circle cx="12" cy="12" r="12" fill="#0E8BFF"/>
<path d="M8.45895 10.7825C8.3248 11.1744 8.25712 11.5859 8.25785 12.0002C8.25785 12.4622 8.3408 12.9053 8.49464 13.3143C9.22051 15.2517 11.3794 16.2331 13.3168 15.507C13.5167 15.4319 13.7094 15.3403 13.8933 15.2325H13.8938C14.6364 14.7976 15.2059 14.1207 15.5094 13.3153H12.1405V10.8231H18.1919C18.3482 11.6475 18.3388 12.4947 18.1643 13.3156C17.8616 14.7343 17.0778 16.0047 15.9463 16.9129C14.8291 17.8131 13.4367 18.3022 12.0022 18.3002C8.52344 18.3022 5.70217 15.4836 5.7002 12.0051C5.6997 10.9949 5.94191 9.99955 6.40638 9.10237C7.4894 7.01189 9.64757 5.69897 12.0022 5.7002C13.5305 5.7002 14.9325 6.24466 16.0234 7.15022L13.9826 8.82127C12.2254 7.72742 9.91463 8.26573 8.82078 10.0222C8.67186 10.2614 8.55052 10.5169 8.45895 10.7825Z" fill="white"/>
</svg>
