<svg width="167" height="73" viewBox="0 0 167 73" fill="none" xmlns="http://www.w3.org/2000/svg">
<path d="M19.8636 44.1663C19.6342 44.9782 19.2572 45.8202 18.7328 46.6923C18.2411 47.5644 17.6183 48.3914 16.8644 49.1732C15.7499 50.346 14.5208 51.1279 13.1769 51.5188C11.8329 51.9098 10.6202 52.1052 9.53847 52.1052C6.29342 52.1052 3.88422 50.9625 2.31087 48.677C0.770289 46.3916 0 43.0987 0 38.7985C0 36.5431 0.213059 34.4381 0.639176 32.4834C1.09807 30.5287 1.70447 28.8297 2.45837 27.3862C3.21227 25.9127 4.09728 24.7549 5.11341 23.9129C6.16231 23.0709 7.27677 22.6499 8.45679 22.6499H9.4893C10.0793 22.6499 10.571 22.7251 10.9643 22.8755C11.3904 23.0258 11.7838 23.2213 12.1443 23.4619C12.5377 23.6724 12.931 23.9129 13.3244 24.1836C13.7177 24.4242 14.2094 24.6647 14.7994 24.9053C15.7827 25.2962 16.4383 26.018 16.7661 27.0705C17.0939 28.0929 17.2577 29.1905 17.2577 30.3633C17.2577 30.7843 17.2414 31.2204 17.2086 31.6715C17.2086 32.1225 17.1266 32.5435 16.9627 32.9345C16.7989 33.2953 16.5366 33.6111 16.1761 33.8817C15.8155 34.1524 15.2911 34.3178 14.6027 34.3779C13.6521 34.3779 12.9966 34.0772 12.636 33.4758C12.2755 32.8743 12.0952 32.2278 12.0952 31.5361C12.0952 31.1452 12.128 30.6791 12.1935 30.1378C12.2591 29.5664 12.2918 28.9951 12.2918 28.4237C12.2918 27.6719 12.1607 27.0103 11.8985 26.439C11.6691 25.8676 11.1774 25.5819 10.4235 25.5819C9.21069 25.5819 8.21095 25.9879 7.42427 26.7998C6.67037 27.5817 6.06398 28.5891 5.60508 29.822C5.17896 31.055 4.86757 32.4232 4.6709 33.9268C4.50701 35.4304 4.42506 36.8889 4.42506 38.3023C4.42506 39.7457 4.45784 41.0839 4.5234 42.3169C4.62173 43.5197 4.83479 44.6023 5.16257 45.5646C5.49036 46.5269 5.96564 47.3689 6.58843 48.0907C7.21122 48.7823 8.07984 49.3537 9.1943 49.8047C9.6532 49.9852 10.1613 50.0754 10.7185 50.0754C11.5379 50.0754 12.3082 49.91 13.0294 49.5792C13.7833 49.2183 14.4388 48.7522 14.9961 48.1809C15.5533 47.6095 15.9958 46.963 16.3236 46.2412C16.6514 45.4894 16.8152 44.7226 16.8152 43.9407C16.8152 43.1589 16.9627 42.4672 17.2577 41.8658C17.5855 41.2644 18.11 40.9636 18.8311 40.9636C19.3556 40.9636 19.6997 41.114 19.8636 41.4147C20.0275 41.7154 20.1095 42.0613 20.1095 42.4522C20.1095 43.1438 20.0275 43.7152 19.8636 44.1663Z" fill="#0E8BFF"/>
<path d="M40.3875 44.3467C40.3548 44.7677 40.2073 45.3692 39.945 46.151C39.7156 46.9028 39.355 47.6546 38.8634 48.4064C38.4045 49.1281 37.7981 49.7747 37.0442 50.346C36.323 50.8873 35.438 51.158 34.3891 51.158C33.373 51.158 32.5535 50.8873 31.9308 50.346C31.3407 49.8047 30.8818 49.068 30.5541 48.1358C30.2591 47.1735 30.0624 46.0307 29.9641 44.7076C29.8985 43.3844 29.8657 41.941 29.8657 40.3772C29.8657 40.1066 29.8657 39.7758 29.8657 39.3849C29.8657 38.9639 29.8821 38.603 29.9149 38.3023C29.5216 38.9639 29.1282 39.8059 28.7349 40.8283C28.3415 41.8207 27.981 42.8882 27.6532 44.031C27.3582 45.1737 27.1124 46.3465 26.9157 47.5494C26.719 48.7222 26.6043 49.8348 26.5715 50.8873C26.2437 50.9475 25.8832 51.0226 25.4898 51.1129C25.1293 51.2031 24.7031 51.2482 24.2115 51.2482C24.0148 51.2482 23.7854 51.2332 23.5231 51.2031C23.2609 51.173 22.9987 51.1129 22.7365 51.0226C22.4742 50.9324 22.2448 50.8121 22.0481 50.6618C21.8842 50.4814 21.8023 50.2558 21.8023 49.9852C21.8023 49.925 21.8514 49.7897 21.9498 49.5792C22.0809 49.3687 22.1464 48.9477 22.1464 48.3162V22.3793C22.1464 21.9583 22.0809 21.6726 21.9498 21.5222C21.8514 21.3719 21.8023 21.1914 21.8023 20.9809C21.8023 20.8606 21.917 20.7704 22.1464 20.7103C22.3759 20.6201 22.6381 20.5599 22.9331 20.5299C23.2281 20.4697 23.5231 20.4396 23.8181 20.4396C24.1459 20.4096 24.4081 20.3945 24.6048 20.3945C25.457 20.3945 26.3257 20.5599 27.2107 20.8907C27.0468 21.7027 26.8829 22.7852 26.719 24.1385C26.5879 25.4616 26.4568 26.8449 26.3257 28.2884C26.1946 29.7017 26.0962 31.07 26.0307 32.3932C25.9651 33.6863 25.9323 34.6937 25.9323 35.4154C25.9323 35.5056 25.9323 35.6259 25.9323 35.7763C25.9323 35.8965 25.9159 36.2424 25.8832 36.8137C25.8832 37.355 25.8668 38.2121 25.834 39.3849C25.834 40.5577 25.8176 42.2116 25.7848 44.3467C25.7848 44.3166 25.8504 44.031 25.9815 43.4897C26.1454 42.9484 26.3421 42.2718 26.5715 41.4598C26.801 40.6479 27.0632 39.7758 27.3582 38.8436C27.686 37.9114 28.0138 37.0543 28.3415 36.2724C28.7021 35.4605 29.0627 34.7989 29.4232 34.2877C29.7838 33.7464 30.128 33.4758 30.4557 33.4758C30.8163 33.4758 31.308 33.5509 31.9308 33.7013C32.5863 33.8216 32.996 34.0471 33.1599 34.3779C33.291 34.7388 33.4222 34.9944 33.5533 35.1447C33.7172 35.2951 33.8483 35.4154 33.9466 35.5056C34.0777 35.5958 34.1761 35.686 34.2416 35.7763C34.34 35.8665 34.3891 36.0018 34.3891 36.1822C34.3563 36.2724 34.2744 36.5732 34.1433 37.0844C34.0449 37.5956 33.9302 38.2421 33.7991 39.024C33.7008 39.7758 33.6024 40.6178 33.5041 41.55C33.4058 42.4522 33.3566 43.3543 33.3566 44.2565C33.3566 45.4594 33.4713 46.4968 33.7008 47.3689C33.9302 48.241 34.3727 48.677 35.0283 48.677C35.6839 48.677 36.2247 48.4966 36.6508 48.1358C37.0769 47.7749 37.4211 47.3238 37.6833 46.7825C37.9783 46.2412 38.1914 45.6699 38.3225 45.0684C38.4864 44.4369 38.6175 43.8806 38.7159 43.3995C38.8797 42.7679 39.1256 42.4522 39.4534 42.4522C39.8139 42.4522 40.0598 42.5725 40.1909 42.813C40.3548 43.0536 40.4367 43.3694 40.4367 43.7603L40.3875 44.3467Z" fill="#0E8BFF"/>
<path d="M44.6494 29.8671C44.6494 30.0776 44.5346 30.2581 44.3052 30.4084C44.0757 30.5287 43.8135 30.6189 43.5185 30.6791C43.2563 30.7392 42.994 30.7843 42.7318 30.8144C42.4696 30.8445 42.3057 30.8595 42.2402 30.8595C41.5518 30.8595 40.8635 30.6791 40.1751 30.3182C39.5196 29.9574 38.9132 29.386 38.3559 28.6041C38.2904 28.5139 38.192 28.3936 38.0609 28.2433C37.9298 28.0929 37.8643 27.9877 37.8643 27.9275C37.8643 27.7772 37.979 27.6418 38.2084 27.5215C38.4707 27.4013 38.7493 27.281 39.0443 27.1607C39.3721 27.0404 39.6671 26.9502 39.9293 26.89C40.2243 26.8299 40.421 26.7998 40.5193 26.7998C41.1749 26.7998 41.814 26.9502 42.4368 27.2509C43.0924 27.5516 43.6168 28.1079 44.0102 28.9199C44.0757 29.0101 44.1905 29.1755 44.3543 29.4161C44.551 29.6266 44.6494 29.7769 44.6494 29.8671ZM49.6644 43.5348C49.5661 44.2565 49.3858 45.0083 49.1236 45.7902C48.8614 46.572 48.4844 47.3088 47.9927 48.0004C47.5338 48.662 46.9438 49.2183 46.2227 49.6694C45.5016 50.0904 44.6166 50.3009 43.5677 50.3009C42.7482 50.3009 41.9124 50.0453 41.0601 49.5341C40.2079 48.9928 39.6179 48.2861 39.2901 47.414C38.9951 46.542 38.8476 45.6999 38.8476 44.888C38.8476 44.6474 38.864 44.2866 38.8968 43.8054C38.9295 43.3243 38.9459 42.7379 38.9459 42.0462V37.0844C38.9459 36.8438 38.9295 36.5882 38.8968 36.3175C38.8968 36.0469 38.864 35.7913 38.7984 35.5507C38.7657 35.4304 38.7001 35.2951 38.6018 35.1447C38.5362 34.9944 38.5034 34.8891 38.5034 34.829C38.5034 34.7087 38.5854 34.6185 38.7493 34.5583C38.9132 34.4681 39.0934 34.408 39.2901 34.3779C39.4868 34.3478 39.6671 34.3328 39.831 34.3328C40.0276 34.3328 40.126 34.3328 40.126 34.3328C40.2243 34.3328 40.4537 34.3478 40.8143 34.3779C41.1749 34.3779 41.5518 34.423 41.9451 34.5132C42.3385 34.6035 42.6827 34.7538 42.9777 34.9643C43.3054 35.1447 43.4693 35.4154 43.4693 35.7763C43.5021 35.8665 43.4366 36.0319 43.2727 36.2724C43.1416 36.513 43.0104 36.934 42.8793 37.5354C42.8465 37.776 42.8138 38.0016 42.781 38.2121C42.7482 38.3925 42.7154 38.603 42.6827 38.8436C42.6499 39.0841 42.6171 39.3849 42.5843 39.7457C42.5515 40.0765 42.5188 40.5126 42.486 41.0539V43.7603C42.486 44.2415 42.5024 44.7376 42.5352 45.2489C42.5679 45.73 42.6335 46.1811 42.7318 46.6021C42.8629 46.993 43.0596 47.3238 43.3218 47.5945C43.5841 47.835 43.9282 47.9553 44.3543 47.9553C44.9771 47.9553 45.4688 47.7899 45.8294 47.4591C46.1899 47.1284 46.4685 46.8427 46.6652 46.6021C47.0258 46.151 47.3044 45.5947 47.5011 44.9331C47.6977 44.2415 47.878 43.5348 48.0419 42.813L48.1402 42.362C48.2386 41.9109 48.5336 41.6854 49.0252 41.6854C49.5169 41.6854 49.7628 42.0011 49.7628 42.6326V42.8582L49.6644 43.5348Z" fill="#0E8BFF"/>
<path d="M58.1262 49.4439C58.1262 49.8047 57.9787 50.1205 57.6837 50.3911C57.4215 50.6618 57.0773 50.9024 56.6512 51.1129C56.2578 51.3234 55.8317 51.4737 55.3728 51.5639C54.9467 51.6842 54.5862 51.7444 54.2911 51.7444C53.7339 51.7444 53.1111 51.6842 52.4228 51.5639C51.7672 51.4737 51.21 51.2632 50.7511 50.9324C50.2267 50.5415 49.7841 49.925 49.4236 49.083C49.0958 48.2109 48.8336 47.1885 48.6369 46.0157C48.473 44.8128 48.3583 43.4897 48.2927 42.0462C48.2272 40.5727 48.1944 39.039 48.1944 37.4452C48.1944 36.7837 48.2108 36.0469 48.2436 35.235C48.3091 34.423 48.3747 33.581 48.4402 32.7089C48.5058 31.8068 48.5877 30.9197 48.6861 30.0476C48.7844 29.1454 48.8827 28.2884 48.9811 27.4764C49.0794 26.9051 49.1941 26.2886 49.3252 25.627C49.4564 24.9654 49.5875 24.3339 49.7186 23.7325C49.8825 23.1311 50.0628 22.5898 50.2594 22.1086C50.4561 21.6275 50.6692 21.2816 50.8986 21.0711C51.1608 20.8306 51.505 20.6802 51.9311 20.6201C52.39 20.5299 52.7997 20.4847 53.1603 20.4847C53.9142 20.4847 54.5206 20.6652 54.9795 21.026C55.4384 21.3869 55.7826 21.8831 56.012 22.5146C56.2742 23.116 56.4381 23.8227 56.5037 24.6347C56.602 25.4165 56.6512 26.2585 56.6512 27.1607C56.6512 28.544 56.602 30.0476 56.5037 31.6715C56.4053 33.2653 56.1923 34.8741 55.8645 36.498C55.5695 38.1219 55.127 39.7006 54.537 41.2343C53.9798 42.7679 53.2259 44.1663 52.2753 45.4293C52.3081 45.8503 52.3572 46.3465 52.4228 46.9178C52.5211 47.4591 52.6522 47.9704 52.8161 48.4515C52.98 48.9327 53.1931 49.3386 53.4553 49.6694C53.7175 50.0002 54.0617 50.1656 54.4878 50.1656C54.8812 50.1656 55.1926 50.0904 55.422 49.9401C55.6515 49.7596 55.8481 49.5642 56.012 49.3537C56.2087 49.1432 56.389 48.9627 56.5528 48.8124C56.7495 48.6319 56.9954 48.5417 57.2904 48.5417C57.6181 48.5417 57.8312 48.6319 57.9295 48.8124C58.0606 48.9928 58.1262 49.2033 58.1262 49.4439ZM54.4387 28.2433C54.4387 27.9426 54.4223 27.5817 54.3895 27.1607C54.3895 26.7397 54.3403 26.3337 54.242 25.9428C54.1764 25.5218 54.0781 25.1759 53.947 24.9053C53.8159 24.6046 53.6356 24.4542 53.4061 24.4542C53.0784 24.4542 52.8161 24.8752 52.6195 25.7172C52.4228 26.5592 52.2589 27.6719 52.1278 29.0552C52.0294 30.4084 51.9475 31.9571 51.882 33.7013C51.8492 35.4154 51.8328 37.1596 51.8328 38.9338C51.8328 39.445 51.8328 39.9863 51.8328 40.5577C51.8328 41.099 51.8656 41.5801 51.9311 42.0011C53.0128 39.6254 53.7011 37.3249 53.9961 35.0996C54.2912 32.8743 54.4387 30.5889 54.4387 28.2433Z" fill="#0E8BFF"/>
<path d="M67.9693 49.4439C67.9693 49.8047 67.8218 50.1205 67.5268 50.3911C67.2646 50.6618 66.9204 50.9024 66.4943 51.1129C66.1009 51.3234 65.6748 51.4737 65.2159 51.5639C64.7898 51.6842 64.4292 51.7444 64.1342 51.7444C63.577 51.7444 62.9542 51.6842 62.2659 51.5639C61.6103 51.4737 61.0531 51.2632 60.5942 50.9324C60.0697 50.5415 59.6272 49.925 59.2667 49.083C58.9389 48.2109 58.6767 47.1885 58.48 46.0157C58.3161 44.8128 58.2014 43.4897 58.1358 42.0462C58.0703 40.5727 58.0375 39.039 58.0375 37.4452C58.0375 36.7837 58.0539 36.0469 58.0866 35.235C58.1522 34.423 58.2178 33.581 58.2833 32.7089C58.3489 31.8068 58.4308 30.9197 58.5291 30.0476C58.6275 29.1454 58.7258 28.2884 58.8242 27.4764C58.9225 26.9051 59.0372 26.2886 59.1683 25.627C59.2994 24.9654 59.4306 24.3339 59.5617 23.7325C59.7256 23.1311 59.9058 22.5898 60.1025 22.1086C60.2992 21.6275 60.5122 21.2816 60.7417 21.0711C61.0039 20.8306 61.3481 20.6802 61.7742 20.6201C62.2331 20.5299 62.6428 20.4847 63.0034 20.4847C63.7573 20.4847 64.3637 20.6652 64.8226 21.026C65.2815 21.3869 65.6256 21.8831 65.8551 22.5146C66.1173 23.116 66.2812 23.8227 66.3468 24.6347C66.4451 25.4165 66.4943 26.2585 66.4943 27.1607C66.4943 28.544 66.4451 30.0476 66.3468 31.6715C66.2484 33.2653 66.0354 34.8741 65.7076 36.498C65.4126 38.1219 64.9701 39.7006 64.3801 41.2343C63.8228 42.7679 63.0689 44.1663 62.1184 45.4293C62.1511 45.8503 62.2003 46.3465 62.2659 46.9178C62.3642 47.4591 62.4953 47.9704 62.6592 48.4515C62.8231 48.9327 63.0362 49.3386 63.2984 49.6694C63.5606 50.0002 63.9048 50.1656 64.3309 50.1656C64.7242 50.1656 65.0356 50.0904 65.2651 49.9401C65.4945 49.7596 65.6912 49.5642 65.8551 49.3537C66.0518 49.1432 66.232 48.9627 66.3959 48.8124C66.5926 48.6319 66.8384 48.5417 67.1334 48.5417C67.4612 48.5417 67.6743 48.6319 67.7726 48.8124C67.9037 48.9928 67.9693 49.2033 67.9693 49.4439ZM64.2817 28.2433C64.2817 27.9426 64.2653 27.5817 64.2326 27.1607C64.2326 26.7397 64.1834 26.3337 64.0851 25.9428C64.0195 25.5218 63.9212 25.1759 63.7901 24.9053C63.6589 24.6046 63.4787 24.4542 63.2492 24.4542C62.9214 24.4542 62.6592 24.8752 62.4625 25.7172C62.2659 26.5592 62.102 27.6719 61.9709 29.0552C61.8725 30.4084 61.7906 31.9571 61.725 33.7013C61.6922 35.4154 61.6759 37.1596 61.6759 38.9338C61.6759 39.445 61.6759 39.9863 61.6759 40.5577C61.6759 41.099 61.7086 41.5801 61.7742 42.0011C62.8559 39.6254 63.5442 37.3249 63.8392 35.0996C64.1342 32.8743 64.2817 30.5889 64.2817 28.2433Z" fill="#0E8BFF"/>
<path d="M79.6316 47.9553C79.6316 48.677 79.3693 49.2334 78.8449 49.6243C78.3204 50.0152 77.714 50.3009 77.0257 50.4814C76.3701 50.6618 75.6982 50.767 75.0098 50.7971C74.3543 50.8573 73.879 50.8873 73.584 50.8873C73.1251 50.8873 72.5515 50.8422 71.8631 50.752C71.2075 50.6618 70.552 50.5265 69.8964 50.346C69.2736 50.1355 68.7328 49.8498 68.2739 49.489C67.8478 49.1281 67.6347 48.677 67.6347 48.1358C67.6347 47.805 67.7658 47.5794 68.0281 47.4591C68.3231 47.3088 68.6017 47.2336 68.8639 47.2336C69.2245 47.2336 69.5686 47.3539 69.8964 47.5945C70.257 47.835 70.6175 48.0906 70.9781 48.3613C71.3714 48.6319 71.7976 48.8876 72.2565 49.1281C72.7153 49.3687 73.2398 49.489 73.8298 49.489C74.092 49.489 74.4362 49.4138 74.8623 49.2635C75.3212 49.083 75.5507 48.7823 75.5507 48.3613C75.5507 47.9403 75.354 47.5343 74.9607 47.1434C74.6001 46.7525 74.1248 46.3465 73.5348 45.9255C72.9776 45.5045 72.3712 45.0684 71.7156 44.6174C71.06 44.1663 70.4373 43.6851 69.8473 43.1739C69.29 42.6326 68.8147 42.0462 68.4214 41.4147C68.0608 40.7832 67.8806 40.0916 67.8806 39.3398C67.8806 38.2872 68.2411 37.4001 68.9622 36.6784C69.7161 35.9567 70.5848 35.3853 71.5681 34.9643C72.5842 34.5433 73.6167 34.2426 74.6656 34.0622C75.7146 33.8817 76.534 33.7915 77.124 33.7915C77.6813 33.7915 78.2385 33.8968 78.7957 34.1073C79.3529 34.3178 79.6316 34.7237 79.6316 35.3252C79.6316 35.5056 79.5824 35.7763 79.4841 36.1371C79.4185 36.4679 79.2874 36.7987 79.0907 37.1295C78.9268 37.4603 78.6974 37.761 78.4024 38.0316C78.1074 38.2722 77.7304 38.3925 77.2715 38.3925C77.1404 38.3925 77.0093 38.3474 76.8782 38.2572C76.7471 38.1369 76.5996 38.0166 76.4357 37.8963C76.2718 37.746 76.0915 37.6257 75.8948 37.5354C75.7309 37.4152 75.5343 37.355 75.3048 37.355C74.1576 37.355 73.3545 37.6708 72.8956 38.3023C72.4367 38.9037 72.2073 39.5503 72.2073 40.2419C72.2073 40.8433 72.5842 41.4749 73.3381 42.1364C74.1248 42.798 74.977 43.4596 75.8948 44.1212C76.8454 44.7828 77.6976 45.4443 78.4515 46.1059C79.2382 46.7374 79.6316 47.3539 79.6316 47.9553Z" fill="#0E8BFF"/>
<path d="M107.169 29.5957C107.169 30.4377 106.907 31.3699 106.382 32.3924C105.891 33.3847 105.219 34.347 104.366 35.2792C103.547 36.2115 102.613 37.0685 101.564 37.8504C100.515 38.6022 99.4661 39.1585 98.4172 39.5194C99.3022 39.7599 100.122 40.0607 100.876 40.4215C101.662 40.7523 102.433 41.2034 103.186 41.7748C103.383 41.9251 103.596 42.2108 103.826 42.6318C104.088 43.0227 104.317 43.4588 104.514 43.9399C104.743 44.391 104.924 44.8421 105.055 45.2931C105.186 45.7442 105.251 46.1051 105.251 46.3757C105.251 47.2177 104.858 47.9695 104.071 48.6311C103.318 49.2626 102.449 49.7889 101.466 50.2099C100.482 50.6008 99.5153 50.9015 98.5647 51.112C97.6469 51.3225 97.0078 51.4278 96.6472 51.4278H93.4513C93.1235 51.4278 92.6155 51.2925 91.9271 51.0218C91.2716 50.7813 90.5832 50.4956 89.8621 50.1648C89.1738 49.8039 88.551 49.4581 87.9937 49.1273C87.4365 48.7965 87.0923 48.5559 86.9612 48.4056C87.0596 48.2251 87.1415 47.8342 87.2071 47.2328C87.2726 46.6013 87.3218 45.8344 87.3546 44.9323C87.3873 44.0001 87.4037 42.9776 87.4037 41.865C87.4365 40.7222 87.4529 39.5645 87.4529 38.3917C87.4529 37.2189 87.4365 36.1664 87.4037 35.2341C87.4037 34.2718 87.4037 33.3847 87.4037 32.5728C87.4037 31.7308 87.3873 30.9339 87.3546 30.1821C87.3546 29.4002 87.3546 28.6033 87.3546 27.7914C87.3546 27.0696 87.4201 26.5735 87.5512 26.3028C87.7151 26.0322 87.7807 25.8968 87.7479 25.8968C87.2234 25.8968 86.4204 26.0773 85.3387 26.4381C84.257 26.799 83.1753 27.2501 82.0936 27.7914C81.0447 28.3327 80.127 28.9341 79.3403 29.5957C78.5208 30.2272 78.1111 30.8286 78.1111 31.4C78.1111 32.0916 78.193 32.663 78.3569 33.1141C78.5208 33.5652 78.6028 33.8208 78.6028 33.8809C78.6028 34.3921 78.488 34.8282 78.2586 35.189C78.0291 35.5198 77.6686 35.6852 77.1769 35.6852C76.7836 35.6852 76.4722 35.5649 76.2427 35.3244C76.0133 35.0537 75.8494 34.768 75.7511 34.4673C75.6199 34.1365 75.538 33.8208 75.5052 33.52C75.4724 33.2193 75.4561 33.0239 75.4561 32.9336C75.4561 31.7608 75.833 30.6933 76.5869 29.731C77.3408 28.7687 78.3242 27.9267 79.5369 27.205C80.7497 26.4532 82.1264 25.8217 83.667 25.3104C85.2404 24.7692 86.8465 24.3331 88.4854 24.0023C90.1243 23.6415 91.7141 23.3859 93.2546 23.2355C94.828 23.0551 96.2211 22.9648 97.4339 22.9648H97.8272C99.3022 22.9949 100.679 23.2656 101.957 23.7768C103.268 24.2579 104.35 24.9947 105.202 25.9871C105.268 26.0472 105.301 26.0923 105.301 26.1224C105.333 26.1525 105.366 26.1825 105.399 26.2126C105.825 26.6637 106.153 27.0245 106.382 27.2952C106.612 27.5358 106.776 27.7763 106.874 28.0169C107.005 28.2274 107.087 28.4529 107.12 28.6935C107.153 28.9341 107.169 29.2348 107.169 29.5957ZM103.383 28.6935C103.383 27.3704 102.678 26.4832 101.269 26.0322C99.8595 25.551 97.7944 25.3104 95.0738 25.3104H93.4513C93.0252 25.3104 92.5827 25.3104 92.1238 25.3104C91.6977 25.3104 91.2552 25.3405 90.7963 25.4007C90.8618 25.4909 90.9438 25.5811 91.0421 25.6713C91.1732 25.7615 91.288 25.9119 91.3863 26.1224C91.4846 26.3028 91.5666 26.5885 91.6321 26.9794C91.6977 27.3403 91.7305 27.8515 91.7305 28.5131V37.3993C91.7305 37.6399 91.796 37.8053 91.9271 37.8955C92.091 37.9556 92.6319 37.9857 93.5496 37.9857C94.3691 37.9857 95.3361 37.7301 96.4505 37.2189C97.5978 36.6776 98.6794 35.9709 99.6956 35.0988C100.712 34.2267 101.58 33.2344 102.301 32.1217C103.023 31.009 103.383 29.8663 103.383 28.6935ZM101.171 44.9323C101.171 44.4812 100.925 44.0001 100.433 43.4888C99.9414 42.9776 99.3678 42.4965 98.7122 42.0454C98.0567 41.5943 97.4175 41.2335 96.7947 40.9628C96.1719 40.6621 95.713 40.5117 95.418 40.5117C94.6641 40.5117 93.9266 40.5568 93.2055 40.6471C92.4844 40.7373 92.091 40.8125 92.0255 40.8726C91.9927 40.9027 91.9599 41.0681 91.9271 41.3688C91.8943 41.6695 91.8616 42.0604 91.8288 42.5416C91.796 42.9927 91.7632 43.4888 91.7305 44.0301C91.7305 44.5714 91.7305 45.0977 91.7305 45.6089C91.7305 45.9096 91.7632 46.2554 91.8288 46.6464C91.8943 47.0072 92.0255 47.3681 92.2221 47.729C92.4188 48.0598 92.681 48.3454 93.0088 48.586C93.3694 48.8266 93.8283 48.9469 94.3855 48.9469L95.3688 48.8567C95.7294 48.8567 96.2211 48.7815 96.8439 48.6311C97.4994 48.4507 98.1386 48.1951 98.7614 47.8643C99.417 47.5335 99.9742 47.1275 100.433 46.6464C100.925 46.1352 101.171 45.5638 101.171 44.9323Z" fill="#136CD5"/>
<path d="M127.275 45.8344C127.209 46.2554 127.045 46.7516 126.783 47.323C126.521 47.8944 126.177 48.4507 125.75 48.992C125.357 49.5032 124.882 49.9392 124.325 50.3001C123.8 50.661 123.21 50.8414 122.555 50.8414C121.571 50.8414 120.703 50.4956 119.949 49.8039C119.228 49.1123 118.785 48.1349 118.621 46.8719C118.424 47.3531 118.195 47.9094 117.933 48.5409C117.671 49.1724 117.343 49.7588 116.949 50.3001C116.556 50.8414 116.097 51.2925 115.573 51.6533C115.081 52.0443 114.491 52.2397 113.803 52.2397C113.606 52.2397 113.459 52.2247 113.36 52.1946C113.262 52.1646 113.147 52.1194 113.016 52.0593C112.918 52.0292 112.787 51.9992 112.623 51.9691C112.492 51.939 112.295 51.924 112.033 51.924C111.246 51.924 110.574 51.6834 110.017 51.2023C109.492 50.7512 109.066 50.1648 108.739 49.4431C108.411 48.7213 108.165 47.9395 108.001 47.0975C107.87 46.2254 107.804 45.4134 107.804 44.6616C107.804 42.8573 107.903 41.1432 108.099 39.5194C108.329 37.8955 108.689 36.4671 109.181 35.2341C109.673 33.9711 110.312 32.9788 111.099 32.257C111.885 31.5052 112.836 31.1293 113.95 31.1293C114.606 31.1293 115.098 31.1895 115.425 31.3098C115.786 31.4 116.114 31.5203 116.409 31.6706C116.704 31.7909 117.015 31.9262 117.343 32.0766C117.703 32.227 118.195 32.3472 118.818 32.4375C119.506 32.7983 119.981 33.2344 120.244 33.7456C120.539 34.2267 120.719 34.753 120.785 35.3244C120.883 35.8957 120.916 36.4972 120.883 37.1287C120.85 37.7301 120.883 38.3315 120.981 38.933C120.981 38.963 121.047 39.0081 121.178 39.0683C121.342 39.1284 121.522 39.2036 121.719 39.2938C121.915 39.354 122.079 39.4592 122.21 39.6096C122.374 39.7299 122.456 39.8953 122.456 40.1058V40.2862C122.128 41.0681 121.932 41.7597 121.866 42.3612C121.801 42.9626 121.768 43.6843 121.768 44.5263C121.768 44.9473 121.784 45.4134 121.817 45.9247C121.883 46.4058 121.965 46.8719 122.063 47.323C122.194 47.744 122.374 48.1049 122.604 48.4056C122.833 48.6762 123.128 48.8115 123.489 48.8115C123.882 48.8115 124.226 48.6311 124.521 48.2703C124.849 47.9094 125.111 47.5034 125.308 47.0523C125.537 46.5712 125.718 46.0901 125.849 45.6089C126.013 45.1278 126.111 44.7669 126.144 44.5263C126.209 44.1655 126.373 43.985 126.635 43.985C126.799 43.985 126.947 44.0752 127.078 44.2557C127.242 44.406 127.324 44.6917 127.324 45.1127C127.324 45.233 127.324 45.3533 127.324 45.4736C127.324 45.5638 127.307 45.6841 127.275 45.8344ZM118.179 38.527C118.179 38.1962 118.146 37.8053 118.08 37.3542C118.015 36.9031 117.9 36.4821 117.736 36.0912C117.572 35.7002 117.326 35.3695 116.999 35.0988C116.671 34.8282 116.228 34.6928 115.671 34.6928C114.753 34.6928 113.999 35.0838 113.409 35.8656C112.852 36.6174 112.41 37.5196 112.082 38.5721C111.754 39.5945 111.541 40.6621 111.443 41.7748C111.344 42.8573 111.295 43.7144 111.295 44.3459C111.295 44.827 111.312 45.4134 111.344 46.1051C111.41 46.7667 111.508 47.3982 111.639 47.9996C111.771 48.601 111.951 49.1123 112.18 49.5333C112.442 49.9543 112.77 50.1648 113.164 50.1648C114.114 50.1648 114.835 49.834 115.327 49.1724C115.851 48.4808 116.245 47.6388 116.507 46.6464C116.769 45.6239 116.949 44.5414 117.048 43.3986C117.179 42.2258 117.294 41.1583 117.392 40.196C117.458 39.6848 117.605 39.369 117.834 39.2487C118.064 39.0984 118.179 38.9931 118.179 38.933V38.527Z" fill="#136CD5"/>
<path fill-rule="evenodd" clip-rule="evenodd" d="M152.989 9.21925C153.372 9.3475 154.038 9.6089 154.47 9.80002L155.256 10.1478L151.075 11.292C148.776 11.9214 146.382 12.6366 145.756 12.8817C140.56 14.9128 137.928 17.6376 135.807 23.179C135.207 24.7489 135.173 25.0063 135.684 24.1312C137.374 21.2364 140.219 18.9775 143.301 18.0852C144.342 17.7837 145.644 17.5881 146.765 17.5646C147.847 17.5419 150.594 18.1111 151.66 18.5788C154.562 19.8529 157.003 21.9419 158.756 24.6529C159.426 25.6885 160.464 27.7257 160.359 27.7961C160.339 27.8088 159.004 27.1391 157.39 26.3077C154.179 24.6532 152.814 24.0155 151.197 23.415C150.113 23.0124 147.891 22.5237 146.756 22.4381C144.216 22.2467 141.265 23.0125 138.221 24.6531L137.708 24.9293L138.491 25.0856C141.139 25.6147 143.04 28.4082 142.981 31.685C142.954 33.1794 142.955 33.1796 141.7 31.1042C140.485 29.0931 139.619 28.0385 138.721 27.4739C137.988 27.0132 136.925 26.6517 136.052 26.5662L135.341 26.4965L135.738 27.4633C137.916 32.7716 139.172 40.4588 139.282 49.1503C139.333 53.169 139.208 54.4732 138.145 60.9698C137.901 62.4653 137.559 64.0657 137.462 64.6737L137.173 66.2709L136.861 67.2328L136.19 67.8863L135.088 66.3256L134.37 65.7086L133.316 65.4184L131.926 65.4549L129.579 65.8344L129.47 64.8835L130.418 62.3152L131.99 57.8231L133.551 53.0133C135.249 47.6534 135.154 40.8902 135.081 38.0308C134.918 31.5897 135.022 36.4427 134.911 31.4086C134.718 29.2269 134.334 26.9954 134.123 26.824C134.035 26.7522 133.72 26.5821 133.422 26.4461L132.881 26.1987L132.193 26.5266C131.151 27.0232 130.015 27.8701 129.454 28.5679C128.58 29.6557 126.885 30.074 126.268 32.8337L126.269 33.1597C125.997 31.8161 125.998 32.2185 126.259 30.5241C126.479 29.2672 126.767 28.5923 127.499 27.6246C128.088 26.845 129.506 25.8569 130.305 25.6693C130.59 25.6025 130.831 25.5121 130.841 25.4683C130.889 25.2581 127.643 24.4486 126.259 24.3257C123.834 24.1102 121.786 24.4454 119.444 25.4404C117.355 26.3285 115.725 27.357 111.403 30.5145C110.053 31.5006 108.939 32.2916 108.926 32.272C108.851 32.1531 109.763 29.7481 110.262 28.7522C112.886 23.5118 117.791 19.9339 122.775 19.624C127.026 19.3598 131.118 21.4013 133.394 24.9221C133.72 25.4275 133.952 25.7047 133.908 25.5384C133.803 25.1373 132.127 22.7538 131.101 21.544C129.561 19.7308 128.128 18.5552 126.291 17.6008C125.575 17.2285 125.075 17.0675 123.552 16.7191C120.731 16.0736 119.241 16.0626 113.144 16.6425C111.367 16.8115 109.902 16.9329 109.889 16.9122C109.875 16.8914 110.257 16.532 110.737 16.1137C114.958 12.4333 120.468 10.8604 125.138 12.0025C128.957 12.9365 131.811 15.4128 133.31 19.0918L133.629 19.8756L133.708 19.1897C133.873 17.7649 134.887 15.439 136.008 13.9114C138.452 10.5821 142.793 8.47974 147.373 8.40712C149.214 8.37804 151.435 8.69919 152.989 9.21925Z" fill="#136CD5"/>
<ellipse cx="3.93763" cy="3.6321" rx="3.93763" ry="3.6321" transform="matrix(0.99966 -0.0263838 0.0367124 0.999345 128.953 62.6875)" fill="#136CD5"/>
<path d="M136.566 45.9184C135.911 45.3169 136.275 47.4284 135.848 46.1954C135.75 46.3759 135.413 46.1224 135.249 46.7238C135.118 47.3253 135.544 46.8678 135.249 47.5293C134.954 48.1608 133.117 50.5709 132.626 51.1122C132.167 51.6234 131.577 51.879 130.856 51.879C128.758 51.879 127.316 51.3227 126.529 50.21C125.742 49.0974 125.283 47.4585 125.152 45.2933V34.4223C125.218 34.2118 125.251 34.0615 125.251 33.9713C125.283 33.881 125.431 33.8359 125.693 33.8359C125.857 33.8359 126.136 33.866 126.529 33.9262C126.955 33.9863 127.381 34.0765 127.807 34.1968C128.233 34.287 128.61 34.4223 128.938 34.6028C129.299 34.7832 129.479 34.9937 129.479 35.2343V43.2183C129.479 43.7596 129.479 44.3611 129.479 45.0226C129.512 45.6842 129.561 46.3007 129.627 46.8721C129.725 47.4133 129.872 47.8795 130.069 48.2704C130.266 48.6313 130.544 48.8117 130.905 48.8117C131.855 48.8117 132.969 48.0653 133.493 46.3211C134.018 44.5469 135.184 41.6525 135.249 37.8634C136.057 37.8763 136.327 38.1953 135.688 37.8634C136.327 37.8634 135.848 37.4596 135.848 37.1288C137.531 37.5315 135.389 36.3126 135.848 36.2524C136.34 36.1923 136.173 35.8497 136.566 35.8497C137.55 35.8497 136.107 36.072 136.566 36.2524C137.025 36.4329 137.005 36.2524 136.566 37.1288C136.501 37.6701 137.071 37.9354 137.005 38.2662C136.972 38.5669 137.038 38.3983 137.005 38.6689C135.848 38.9296 137.038 39.4894 137.005 39.7902C137.005 40.0608 137.005 40.9468 137.005 41.4881C137.005 42.1798 136.501 43.1528 136.566 43.9046C136.402 43.2731 136.632 44.6564 136.566 43.9046C136.337 43.4836 136.73 44.5361 136.566 43.9046C136.173 43.9046 136.828 44.2955 136.566 43.9046C136.927 43.9046 135.931 44.8905 136.127 44.7101C135.963 44.9507 136.324 44.4996 136.127 44.7101C135.963 44.8905 136.291 44.4695 136.127 44.7101C135.832 44.7101 136.291 44.4996 136.127 44.7101C135.996 44.5297 136.389 44.7101 136.127 44.7101C136.127 44.5598 136.258 44.8605 136.127 44.7101C136.127 45.2815 136.455 44.3192 136.127 44.7101C135.832 45.101 136.586 44.4695 136.127 44.7101C135.701 44.9507 136.586 44.5898 136.127 44.7101C135.668 44.8003 136.422 44.7101 136.127 44.7101C135.57 44.7101 136.521 44.8304 136.127 44.7101C135.734 44.5898 136.521 44.9507 136.127 44.7101L136.566 45.9184Z" fill="#136CD5"/>
</svg>
